<svg width="483" height="428" viewBox="0 0 483 428" fill="none" xmlns="http://www.w3.org/2000/svg">
<path d="M189.624 82.2952L85.2208 208.549L116.337 334.763L251.763 334.722L356.169 208.468L325.051 82.2546L189.624 82.2952Z" stroke="black"/>
<mask id="mask0_861_3226" style="mask-type:alpha" maskUnits="userSpaceOnUse" x="113" y="108" width="216" height="201">
<path d="M328.378 208.477L303.654 108.189L195.971 108.221L113.013 208.541L137.737 308.829L245.42 308.796L328.378 208.477Z" fill="#D9D9D9"/>
</mask>
<g mask="url(#mask0_861_3226)">
<path d="M196.136 108.701L113.577 208.541L138.181 308.348L245.255 308.316L327.816 208.477L303.209 108.669L196.136 108.701Z" stroke="black"/>
<path d="M47.8506 233.763L216.393 34.6841" stroke="black" stroke-width="0.318956" stroke-miterlimit="10"/>
<path d="M58.7359 253.737L244.072 34.2312" stroke="black" stroke-width="0.318956" stroke-miterlimit="10"/>
<path d="M69.8331 273.492L271.313 33.5542" stroke="black" stroke-width="0.318956" stroke-miterlimit="10"/>
<path d="M80.0802 294.106L298.789 33.3113" stroke="black" stroke-width="0.318956" stroke-miterlimit="10"/>
<path d="M90.7536 314.288L310.127 51.1195" stroke="black" stroke-width="0.318956" stroke-miterlimit="10"/>
<path d="M101.424 334.479L321.676 69.3707" stroke="black" stroke-width="0.318956" stroke-miterlimit="10"/>
<path d="M112.097 354.657L333.229 87.3923" stroke="black" stroke-width="0.318956" stroke-miterlimit="10"/>
<path d="M122.558 374.847L344.356 105.207" stroke="black" stroke-width="0.318956" stroke-miterlimit="10"/>
<path d="M133.231 395.031L355.694 123.018" stroke="black" stroke-width="0.318956" stroke-miterlimit="10"/>
<path d="M144 415.976L368.412 143.544" stroke="black" stroke-width="0.318956" stroke-miterlimit="10"/>
<path d="M168.501 419.063L380.053 161.246" stroke="black" stroke-width="0.318956" stroke-miterlimit="10"/>
<path d="M194.891 419.889L391.615 179.702" stroke="black" stroke-width="0.318956" stroke-miterlimit="10"/>
<path d="M222.129 420.731L404.446 199.907" stroke="black" stroke-width="0.318956" stroke-miterlimit="10"/>
<path d="M400.26 241.826L270.022 31.5918" stroke="black" stroke-width="0.318956" stroke-miterlimit="10"/>
<path d="M344.069 323.83L277.724 38.7168" stroke="black" stroke-width="0.318956" stroke-miterlimit="10"/>
<path d="M322.815 337.177L252.433 34.3398" stroke="black" stroke-width="0.318956" stroke-miterlimit="10"/>
<path d="M300.533 350.831L230.861 46.6396" stroke="black" stroke-width="0.318956" stroke-miterlimit="10"/>
<path d="M279.683 363.633L209.663 59.7773" stroke="black" stroke-width="0.318956" stroke-miterlimit="10"/>
<path d="M258.504 376.767L188.161 71.8789" stroke="black" stroke-width="0.318956" stroke-miterlimit="10"/>
<path d="M236.806 390.175L166.752 84.4717" stroke="black" stroke-width="0.318956" stroke-miterlimit="10"/>
<path d="M214.51 403.837L145.285 97.7393" stroke="black" stroke-width="0.318956" stroke-miterlimit="10"/>
<path d="M193.61 416.844L123.655 109.569" stroke="black" stroke-width="0.318956" stroke-miterlimit="10"/>
<path d="M166.048 405.91L102.136 122.348" stroke="black" stroke-width="0.318956" stroke-miterlimit="10"/>
<path d="M201.413 414.099L59.833 186.702" stroke="black" stroke-width="0.318956" stroke-miterlimit="10"/>
<path d="M173.517 414.119L43.4858 205.184" stroke="black" stroke-width="0.318956" stroke-miterlimit="10"/>
</g>
<path d="M0 374L256 374" stroke="url(#paint0_linear_861_3226)"/>
<path d="M439 166L275 365.76" stroke="url(#paint1_linear_861_3226)"/>
<path d="M482 204L318 403.76" stroke="url(#paint2_linear_861_3226)"/>
<path d="M0 427L256 427" stroke="url(#paint3_linear_861_3226)"/>
<path d="M151.464 402.624C151.571 402.624 151.624 402.859 151.624 403.328C151.624 403.776 151.571 404 151.464 404H149.8C149.96 404.16 150.04 404.411 150.04 404.752C150.04 405.371 149.859 405.915 149.496 406.384C149.144 406.864 148.637 407.237 147.976 407.504C147.325 407.771 146.568 407.904 145.704 407.904H144.472C143.128 407.904 142.093 407.515 141.368 406.736C140.643 405.957 140.28 404.869 140.28 403.472V400.448H141.608V403.44C141.608 404.453 141.853 405.221 142.344 405.744C142.835 406.267 143.555 406.528 144.504 406.528H145.704C146.675 406.528 147.416 406.373 147.928 406.064C148.451 405.755 148.712 405.328 148.712 404.784C148.712 404.496 148.637 404.283 148.488 404.144C148.349 404.016 148.125 403.952 147.816 403.952H144.84L144.984 402.624H151.464ZM155.757 401.456C155.757 402.245 155.517 402.869 155.037 403.328C154.557 403.776 153.922 404 153.133 404H151.469C151.362 404 151.309 403.776 151.309 403.328C151.309 402.859 151.362 402.624 151.469 402.624H153.133C153.517 402.624 153.826 402.523 154.061 402.32C154.306 402.107 154.429 401.813 154.429 401.44V398.848H155.757V401.456ZM153.325 396.928V395.6H155.021V396.928H153.325ZM161.367 402.624C161.421 402.624 161.458 402.672 161.479 402.768C161.511 402.853 161.527 403.04 161.527 403.328C161.527 403.605 161.511 403.787 161.479 403.872C161.458 403.957 161.421 404 161.367 404H160.951C160.141 404 159.522 403.76 159.095 403.28C158.679 402.789 158.471 402.096 158.471 401.2V393.648H159.799V401.136C159.799 402.128 160.205 402.624 161.015 402.624H161.367ZM163.935 402.624C163.572 402.379 163.284 402.059 163.071 401.664C162.868 401.259 162.767 400.837 162.767 400.4C162.767 399.845 162.9 399.339 163.167 398.88C163.444 398.411 163.812 398.043 164.271 397.776C164.74 397.499 165.263 397.36 165.839 397.36C166.426 397.36 166.948 397.488 167.407 397.744C167.876 397.989 168.239 398.336 168.495 398.784C168.751 399.232 168.879 399.744 168.879 400.32C168.879 401.291 168.463 402.059 167.631 402.624H170.271C170.378 402.624 170.431 402.859 170.431 403.328C170.431 403.776 170.378 404 170.271 404H168.143C167.492 404 167.002 403.984 166.671 403.952C166.34 403.909 166.074 403.84 165.871 403.744C165.679 403.84 165.402 403.909 165.039 403.952C164.687 403.984 164.186 404 163.535 404H161.375C161.268 404 161.215 403.776 161.215 403.328C161.215 402.859 161.268 402.624 161.375 402.624H163.935ZM165.839 398.704C165.327 398.704 164.906 398.864 164.575 399.184C164.255 399.504 164.095 399.909 164.095 400.4C164.095 400.859 164.244 401.28 164.543 401.664C164.842 402.037 165.274 402.347 165.839 402.592C166.415 402.336 166.842 402.016 167.119 401.632C167.407 401.248 167.551 400.837 167.551 400.4C167.551 399.888 167.396 399.477 167.087 399.168C166.778 398.859 166.362 398.704 165.839 398.704ZM167.951 394.224V395.488H163.727V394.224H167.951ZM171.386 402.624C172.186 402.624 172.852 402.56 173.386 402.432C173.919 402.304 174.468 402.08 175.034 401.76L177.466 400.336C177.295 399.76 177.06 399.36 176.762 399.136C176.474 398.912 176.036 398.8 175.45 398.8H171.706L171.882 397.408H175.674C176.314 397.408 176.842 397.515 177.258 397.728C177.674 397.941 178.02 398.293 178.298 398.784C178.575 399.264 178.815 399.931 179.018 400.784L175.658 402.864C174.975 403.291 174.319 403.589 173.69 403.76C173.06 403.92 172.276 404 171.338 404H170.266C170.159 404 170.106 403.776 170.106 403.328C170.106 402.859 170.159 402.624 170.266 402.624H171.386ZM184.905 401.36C184.905 400.752 185.07 400.149 185.401 399.552C185.742 398.944 186.324 398.235 187.145 397.424L186.441 396.704L187.385 395.696C188.452 396.699 189.252 397.515 189.785 398.144C190.329 398.763 190.702 399.301 190.905 399.76C191.108 400.208 191.209 400.688 191.209 401.2C191.209 401.765 191.07 402.272 190.793 402.72C190.516 403.168 190.126 403.52 189.625 403.776C189.134 404.032 188.569 404.16 187.929 404.16C187.022 404.16 186.292 403.904 185.737 403.392C185.182 402.869 184.905 402.192 184.905 401.36ZM189.881 401.2C189.881 400.752 189.748 400.315 189.481 399.888C189.225 399.451 188.75 398.912 188.057 398.272C187.385 398.923 186.91 399.477 186.633 399.936C186.366 400.384 186.233 400.832 186.233 401.28C186.233 401.717 186.388 402.08 186.697 402.368C187.017 402.645 187.444 402.784 187.977 402.784C188.532 402.784 188.985 402.635 189.337 402.336C189.7 402.037 189.881 401.659 189.881 401.2ZM193.924 393.648H195.252V404H193.924V393.648ZM200.28 401.392C200.28 401.787 200.392 402.091 200.616 402.304C200.851 402.517 201.187 402.624 201.624 402.624H201.832C201.939 402.624 201.992 402.859 201.992 403.328C201.992 403.776 201.939 404 201.832 404H201.624C201.336 404 201.069 403.952 200.824 403.856C200.579 403.749 200.397 403.616 200.28 403.456V403.648C200.269 404.501 200.088 405.248 199.736 405.888C199.384 406.539 198.893 407.035 198.264 407.376C197.635 407.728 196.909 407.904 196.088 407.904H194.968L194.84 406.528H196.056C196.963 406.528 197.672 406.261 198.184 405.728C198.696 405.205 198.952 404.475 198.952 403.536V398.848H200.28V401.392ZM208.532 391.056L208.804 391.92L203.332 394.192V393.232L208.532 391.056ZM206.26 402.624C206.719 402.624 207.076 402.533 207.332 402.352C207.599 402.171 207.732 401.925 207.732 401.616C207.732 401.403 207.679 401.195 207.572 400.992C207.476 400.779 207.311 400.555 207.076 400.32L203.316 396.592V395.44L209.156 393.12L209.556 394.4L204.884 396.24L208.084 399.456C208.735 400.107 209.06 400.832 209.06 401.632C209.06 402.336 208.815 402.907 208.324 403.344C207.833 403.781 207.145 404 206.26 404H201.828C201.721 404 201.668 403.776 201.668 403.328C201.668 402.859 201.721 402.624 201.828 402.624H206.26ZM214.171 403.536C214.171 404.421 213.995 405.195 213.643 405.856C213.291 406.517 212.795 407.024 212.155 407.376C211.525 407.728 210.8 407.904 209.979 407.904H208.858L208.73 406.528H209.947C210.853 406.528 211.563 406.261 212.075 405.728C212.587 405.205 212.843 404.475 212.843 403.536V398.848H214.171V403.536ZM215.384 406.528C216.291 406.528 217 406.261 217.512 405.728C218.024 405.205 218.28 404.475 218.28 403.536V398.848H219.608V401.392C219.608 401.787 219.72 402.091 219.944 402.304C220.179 402.517 220.515 402.624 220.952 402.624H221.16C221.267 402.624 221.32 402.859 221.32 403.328C221.32 403.776 221.267 404 221.16 404H220.952C220.664 404 220.397 403.952 220.152 403.856C219.907 403.749 219.725 403.616 219.608 403.456V403.648C219.597 404.501 219.416 405.248 219.064 405.888C218.712 406.539 218.221 407.035 217.592 407.376C216.963 407.728 216.237 407.904 215.416 407.904H214.968L214.84 406.528H215.384ZM217.976 396.928V395.6H219.672V396.928H217.976ZM225.444 401.456C225.444 402.245 225.204 402.869 224.724 403.328C224.244 403.776 223.61 404 222.82 404H221.156C221.05 404 220.996 403.776 220.996 403.328C220.996 402.859 221.05 402.624 221.156 402.624H222.82C223.204 402.624 223.514 402.523 223.748 402.32C223.994 402.107 224.116 401.813 224.116 401.44V398.848H225.444V401.456ZM221.588 407.344V406.016H223.284V407.344H221.588Z" fill="black"/>
<path d="M340.127 320.108L347.088 325.776L348.432 324.126C348.674 323.828 348.787 323.521 348.769 323.204C348.759 322.879 348.613 322.602 348.332 322.373L342.289 317.453L343.128 316.423L349.183 321.353C349.795 321.852 350.127 322.432 350.18 323.094C350.224 323.749 349.997 324.382 349.499 324.995L347.316 327.674L339.289 321.138L340.127 320.108ZM353.963 317.332C354.199 317.042 354.326 316.76 354.343 316.486C354.367 316.203 354.28 315.98 354.081 315.819C353.916 315.684 353.589 315.528 353.101 315.35C352.613 315.173 351.37 314.739 349.374 314.049C349.287 314.02 349.205 313.994 349.127 313.972C349.041 313.943 348.966 313.916 348.903 313.892L349.247 312.583L354.548 314.486C355.036 314.663 355.426 314.733 355.718 314.696C356.01 314.658 356.274 314.495 356.509 314.205L356.721 313.945C356.789 313.862 357.004 313.969 357.368 314.265C357.592 314.447 357.726 314.577 357.772 314.656C357.817 314.72 357.822 314.772 357.788 314.814L357.546 315.111C357.236 315.492 356.918 315.756 356.592 315.903C356.266 316.05 355.909 316.083 355.522 316.001C355.667 316.38 355.697 316.749 355.612 317.106C355.534 317.455 355.34 317.82 355.03 318.201L352.666 321.104L351.519 320.334L353.963 317.332ZM358.527 309.877C359.139 310.376 359.472 310.956 359.524 311.618C359.568 312.273 359.341 312.906 358.843 313.519L357.792 314.809C357.725 314.892 357.518 314.792 357.17 314.509C356.806 314.212 356.658 314.023 356.725 313.94L357.776 312.65C358.018 312.352 358.135 312.048 358.126 311.738C358.116 311.413 357.966 311.133 357.676 310.897L355.666 309.261L356.505 308.231L358.527 309.877ZM353.48 308.904L352.45 308.066L353.521 306.751L354.551 307.589L353.48 308.904ZM362.975 306.264C363.009 306.223 363.07 306.224 363.158 306.268C363.244 306.297 363.399 306.403 363.622 306.585C363.837 306.76 363.968 306.887 364.014 306.965C364.067 307.036 364.076 307.092 364.042 307.133L363.78 307.456C363.268 308.084 362.691 308.413 362.049 308.44C361.406 308.453 360.737 308.177 360.043 307.611L354.186 302.842L355.025 301.813L360.831 306.541C361.601 307.167 362.241 307.166 362.753 306.537L362.975 306.264ZM363.213 305.973C363.691 305.386 363.665 304.876 363.136 304.445L362.627 304.031C361.833 303.385 361.38 302.665 361.269 301.873C361.157 301.081 361.401 300.316 362.001 299.58C362.6 298.844 363.277 298.453 364.03 298.406C364.784 298.359 365.566 298.666 366.376 299.326C367.145 299.952 367.573 300.644 367.658 301.401C367.743 302.158 367.489 302.9 366.896 303.628C366.196 304.489 365.468 304.859 364.713 304.739C364.863 305.095 364.906 305.439 364.841 305.772C364.777 306.105 364.589 306.461 364.28 306.842L364.047 307.127C363.98 307.21 363.773 307.11 363.425 306.827C363.061 306.531 362.913 306.341 362.98 306.258L363.213 305.973ZM365.538 300.356C364.562 299.561 363.72 299.598 363.013 300.466C362.656 300.905 362.514 301.332 362.587 301.749C362.66 302.167 362.953 302.584 363.466 303.001C363.871 303.331 364.28 303.479 364.694 303.444C365.114 303.401 365.492 303.173 365.829 302.759C366.536 301.891 366.439 301.09 365.538 300.356ZM378.491 295.571C377.643 296.613 376.688 297.17 375.626 297.241C374.564 297.311 373.491 296.906 372.408 296.023L370.063 294.114L370.901 293.084L373.222 294.973C374.007 295.613 374.758 295.908 375.473 295.857C376.188 295.807 376.845 295.414 377.445 294.677L377.869 294.156C378.448 293.445 378.703 292.71 378.633 291.951C378.569 291.185 378.186 290.515 377.483 289.942L373.823 286.962L374.661 285.932L378.222 288.832C378.934 289.411 379.432 290.057 379.717 290.771C380.009 291.477 380.083 292.197 379.939 292.932C379.809 293.666 379.475 294.363 378.936 295.025L378.491 295.571ZM370.632 290.121L369.602 289.282L370.673 287.967L371.703 288.805L370.632 290.121ZM384.008 280.435C384.041 280.393 384.102 280.395 384.19 280.439C384.276 280.468 384.431 280.573 384.655 280.755C384.87 280.93 385 281.057 385.046 281.136C385.099 281.206 385.108 281.262 385.075 281.303L384.105 282.494C384.987 283.337 385.465 284.262 385.538 285.271C385.611 286.279 385.273 287.242 384.526 288.161L383.283 289.687L382.135 288.917L383.469 287.279C384.007 286.618 384.257 285.948 384.218 285.269C384.194 284.589 383.883 283.999 383.286 283.499L382.276 284.74C381.582 285.592 380.907 286.067 380.25 286.164C379.591 286.247 378.889 285.985 378.145 285.379C377.632 284.962 377.258 284.492 377.023 283.97C376.779 283.442 376.694 282.912 376.769 282.381C376.842 281.835 377.064 281.335 377.434 280.88C378.02 280.16 378.721 279.789 379.538 279.766C380.354 279.743 381.18 280.072 382.016 280.752L383.058 281.601L384.008 280.435ZM378.921 284.299C379.343 284.642 379.729 284.785 380.08 284.726C380.429 284.653 380.822 284.347 381.26 283.809L382.219 282.631L381.252 281.843C380.681 281.378 380.157 281.143 379.678 281.139C379.2 281.135 378.783 281.352 378.426 281.791C378.116 282.171 378.007 282.592 378.1 283.052C378.193 283.513 378.467 283.928 378.921 284.299ZM384.792 279.471C385.089 279.107 385.231 278.755 385.219 278.415C385.214 278.067 385.058 277.768 384.752 277.519L382.804 275.933L383.652 274.89L385.6 276.476C386.254 277.009 386.88 276.906 387.48 276.17C387.776 275.806 387.918 275.454 387.906 275.115C387.901 274.766 387.745 274.468 387.439 274.218L385.491 272.632L386.33 271.602L388.278 273.189C388.592 273.445 388.907 273.556 389.222 273.524C389.535 273.477 389.834 273.279 390.117 272.932C390.393 272.593 390.518 272.262 390.492 271.938C390.474 271.607 390.311 271.316 390.005 271.067L388.057 269.481L388.896 268.451L390.844 270.037C391.497 270.569 392.09 270.509 392.622 269.855L392.915 269.495C392.989 269.404 393.208 269.507 393.572 269.803C393.787 269.978 393.918 270.105 393.964 270.184C394.009 270.263 394.016 270.323 393.982 270.364L393.689 270.724C393.042 271.518 392.381 271.832 391.704 271.666C391.957 272.353 391.783 273.065 391.184 273.801C390.503 274.636 389.809 274.965 389.101 274.787C389.365 275.511 389.18 276.262 388.547 277.039C387.833 277.916 387.122 278.265 386.414 278.088C386.677 278.811 386.493 279.562 385.859 280.339L385.071 281.307C385.004 281.39 384.797 281.29 384.449 281.007C384.085 280.711 383.937 280.521 384.004 280.438L384.792 279.471ZM393.236 269.101C393.479 268.803 393.591 268.496 393.574 268.179C393.557 267.862 393.408 267.589 393.126 267.36L387.084 262.44L387.933 261.398L393.913 266.268C394.252 266.544 394.571 266.659 394.87 266.613C395.168 266.568 395.435 266.4 395.671 266.11L395.924 265.8C395.991 265.718 396.202 265.821 396.558 266.111C396.914 266.4 397.058 266.586 396.991 266.669L396.708 267.017C396.411 267.38 396.1 267.636 395.774 267.783C395.44 267.924 395.112 267.946 394.791 267.85C395.052 268.543 394.889 269.25 394.303 269.969L393.99 270.354C393.923 270.437 393.715 270.337 393.368 270.054C393.004 269.757 392.856 269.568 392.923 269.485L393.236 269.101ZM397.724 261.739C398.336 262.238 398.669 262.818 398.721 263.48C398.765 264.135 398.538 264.768 398.04 265.38L396.989 266.671C396.922 266.753 396.715 266.653 396.367 266.37C396.003 266.074 395.855 265.885 395.922 265.802L396.973 264.512C397.215 264.214 397.332 263.91 397.323 263.6C397.313 263.275 397.163 262.995 396.873 262.759L394.863 261.122L395.702 260.093L397.724 261.739ZM392.677 260.766L391.648 259.928L392.718 258.612L393.748 259.451L392.677 260.766Z" fill="black"/>
<path d="M257.999 41.4089C263.312 41.4089 267.619 37.1019 267.619 31.7889C267.619 26.476 263.312 22.1689 257.999 22.1689C252.686 22.1689 248.379 26.476 248.379 31.7889C248.379 37.1019 252.686 41.4089 257.999 41.4089Z" stroke="black" stroke-width="1.5"/>
<path d="M232.162 26.1778C238.236 -0.523834 277.795 -0.493 283.839 26.2087C287.385 41.872 277.641 55.1303 269.1 63.332C262.903 69.3137 253.098 69.3137 246.87 63.332C238.36 55.1303 228.616 41.8412 232.162 26.1778Z" stroke="black" stroke-width="1.5"/>
<defs>
<linearGradient id="paint0_linear_861_3226" x1="-4.37114e-08" y1="374.5" x2="256" y2="374.5" gradientUnits="userSpaceOnUse">
<stop stop-color="white"/>
<stop offset="0.5" stop-color="#333333"/>
<stop offset="1" stop-color="white"/>
</linearGradient>
<linearGradient id="paint1_linear_861_3226" x1="438.614" y1="165.683" x2="274.614" y2="365.443" gradientUnits="userSpaceOnUse">
<stop stop-color="white"/>
<stop offset="0.5" stop-color="#333333"/>
<stop offset="1" stop-color="white"/>
</linearGradient>
<linearGradient id="paint2_linear_861_3226" x1="481.614" y1="203.683" x2="317.614" y2="403.443" gradientUnits="userSpaceOnUse">
<stop stop-color="white"/>
<stop offset="0.5" stop-color="#333333"/>
<stop offset="1" stop-color="white"/>
</linearGradient>
<linearGradient id="paint3_linear_861_3226" x1="-4.37114e-08" y1="427.5" x2="256" y2="427.5" gradientUnits="userSpaceOnUse">
<stop stop-color="white"/>
<stop offset="0.5" stop-color="#333333"/>
<stop offset="1" stop-color="white"/>
</linearGradient>
</defs>
</svg>
