<svg width="36" height="36" viewBox="0 0 36 36" fill="none" xmlns="http://www.w3.org/2000/svg">
<path d="M34.6168 28.5507C34.6168 29.1507 34.4835 29.7673 34.2002 30.3673C33.9168 30.9673 33.5502 31.534 33.0668 32.0673C32.2502 32.9673 31.3502 33.6173 30.3335 34.034C29.3335 34.4507 28.2502 34.6673 27.0835 34.6673C25.3835 34.6673 23.5668 34.2673 21.6502 33.4507C19.7335 32.634 17.8168 31.534 15.9168 30.1507C14.0002 28.7507 12.1835 27.2007 10.4502 25.484C8.7335 23.7507 7.1835 21.934 5.80016 20.034C4.4335 18.134 3.3335 16.234 2.5335 14.3507C1.7335 12.4507 1.3335 10.634 1.3335 8.90065C1.3335 7.76732 1.5335 6.68398 1.9335 5.68398C2.3335 4.66732 2.96683 3.73398 3.85016 2.90065C4.91683 1.85065 6.0835 1.33398 7.31683 1.33398C7.7835 1.33398 8.25016 1.43398 8.66683 1.63398C9.10016 1.83398 9.4835 2.13398 9.7835 2.56732L13.6502 8.01732C13.9502 8.43399 14.1668 8.81732 14.3168 9.18398C14.4668 9.53398 14.5502 9.88399 14.5502 10.2007C14.5502 10.6007 14.4335 11.0007 14.2002 11.384C13.9835 11.7673 13.6668 12.1673 13.2668 12.5673L12.0002 13.884C11.8168 14.0673 11.7335 14.284 11.7335 14.5507C11.7335 14.684 11.7502 14.8007 11.7835 14.934C11.8335 15.0673 11.8835 15.1673 11.9168 15.2673C12.2168 15.8173 12.7335 16.534 13.4668 17.4007C14.2168 18.2673 15.0168 19.1507 15.8835 20.034C16.7835 20.9173 17.6502 21.734 18.5335 22.484C19.4002 23.2173 20.1168 23.7173 20.6835 24.0173C20.7668 24.0507 20.8668 24.1007 20.9835 24.1507C21.1168 24.2007 21.2502 24.2173 21.4002 24.2173C21.6835 24.2173 21.9002 24.1173 22.0835 23.934L23.3502 22.684C23.7668 22.2673 24.1668 21.9507 24.5502 21.7507C24.9335 21.5173 25.3168 21.4007 25.7335 21.4007C26.0502 21.4007 26.3835 21.4673 26.7502 21.6173C27.1168 21.7673 27.5002 21.984 27.9168 22.2673L33.4335 26.184C33.8668 26.484 34.1668 26.834 34.3502 27.2507C34.5168 27.6673 34.6168 28.084 34.6168 28.5507Z" stroke="black" stroke-width="1.5" stroke-miterlimit="10"/>
<path d="M28.8333 13.0003C28.8333 12.0003 28.05 10.467 26.8833 9.21699C25.8167 8.06699 24.4 7.16699 23 7.16699" stroke="black" stroke-width="1.5" stroke-linecap="round" stroke-linejoin="round"/>
<path d="M34.6667 13.0007C34.6667 6.55065 29.45 1.33398 23 1.33398" stroke="black" stroke-width="1.5" stroke-linecap="round" stroke-linejoin="round"/>
</svg>
