<svg width="64" height="48" viewBox="0 0 64 48" fill="none" xmlns="http://www.w3.org/2000/svg">
<path d="M28.9922 9.71967C27.7538 9.71967 27.3411 10.2344 26.314 10.4286C21.744 11.2977 19.2231 13.876 19.3411 13.842C22.1322 13.07 23.8374 13.036 24.5597 13.0408C24.8791 13.0408 25.0708 13.07 25.1248 13.0845C25.4 13.1574 25.6064 13.405 25.6064 13.7012C25.6064 13.7692 25.5917 13.8371 25.572 13.8954C25.572 13.9003 25.5524 13.9537 25.5425 13.9682C25.3214 14.4829 23.4737 18.78 23.1298 19.4695C20.5352 24.5921 18.6089 29.802 17.3853 34.978L17.3411 35.1771H22.2895L22.319 35.0557C23.8374 29.0446 26.4565 22.7616 29.8963 16.8767C31.2968 14.4829 32.8251 12.1571 34.4467 9.9673L34.6334 9.70996H28.9971L28.9922 9.71967Z" fill="black"/>
<path d="M52.6973 37.7457C51.4 39.416 49.9061 40.8727 48.3779 41.9506C46.1911 43.2956 44.2943 43.6112 43.0364 42.8343C41.6948 42.004 41.4295 40.1929 41.4442 38.8188C41.454 37.7603 41.5523 36.7406 41.9749 35.2548C43.0167 35.1626 46.6138 34.6722 49.6359 32.395C49.8226 32.2541 50.0192 32.1133 50.2157 31.9774C50.5056 31.7734 50.8054 31.5598 51.0953 31.3267C55.1592 28.0736 57.3705 23.8638 56.3533 21.3244C56.2305 21.0185 55.7784 20.2853 55.3115 19.9163C54.8988 19.591 54.3828 19.2317 53.6801 19.0666C50.4614 18.3091 46.1125 20.4067 42.6039 24.4174C41.798 25.3399 41.0413 26.3498 40.3582 27.4278C40.1371 27.7725 39.9307 28.127 39.7341 28.4717L39.5769 28.7533L39.5671 28.7727L39.5523 28.797C39.1592 29.5982 38.6432 30.6567 38.5941 30.7684C38.2698 31.521 37.9946 32.293 37.7685 33.0553C37.626 33.0407 37.4934 33.0019 37.3803 32.9388C37.0069 32.7348 36.5646 32.0162 36.5646 31.1471C36.5646 29.6904 37.0462 28.3892 37.2673 27.6803C39.8029 19.5279 44.3828 12.9584 45.3263 11.5454L45.5966 11.1424L45.115 11.055C39.9356 10.0985 33.2477 13.8615 27.8717 20.5767C25.8226 24.5727 24.1567 28.6853 22.9626 32.7106C23.3066 31.89 23.6899 31.0743 24.1027 30.2682C24.6334 29.2292 25.228 28.1901 25.8668 27.1801C28.6039 22.8587 32.1223 19.188 35.7833 16.8719C36.3926 16.4835 36.7907 16.3232 37.0314 16.2455C37.5032 16.0902 37.4639 16.3329 37.4098 16.4495C37.3312 16.6146 37.2231 16.8379 37.056 17.1681L36.8201 17.6342C35.0216 21.1593 31.2771 28.5008 32.8152 32.9193C33.572 35.0995 36.3386 35.4782 36.4565 35.4928C36.6973 35.5219 36.9528 35.551 37.2182 35.5705C36.7563 38.746 37.3263 41.4553 38.8398 43.2227C39.1739 43.616 39.5572 43.9608 39.9798 44.257C40.5253 44.6357 41.4688 45.1115 42.1125 45.262C42.5744 45.3689 43.3361 45.4611 43.7685 45.4611C46.7612 45.4611 48.2501 44.6065 49.0462 44.1453L49.1297 44.0967C52.4024 42.2225 55.4 38.2992 55.5278 38.1342L55.916 37.6195H52.8103L52.712 37.7457H52.6973ZM44.2747 29.9818C44.4221 29.739 44.5499 29.5205 44.6678 29.3166C44.6875 29.2826 44.7071 29.2486 44.7219 29.2146L44.7513 29.1563C44.8447 29.001 44.9381 28.8456 45.0364 28.6951C45.8717 27.3792 46.7956 26.1556 47.7882 25.0583L47.911 24.9223C48.6039 24.1503 50.4467 22.0964 52.4811 21.1884C52.7022 21.0913 52.9233 21.0428 53.1346 21.0428C53.4 21.0428 53.6506 21.1205 53.857 21.271C54.6187 21.8294 54.4418 23.5579 53.4344 25.3739C53.2034 25.7866 52.9332 26.2042 52.6334 26.6072C52.2206 27.1559 51.7735 27.6463 51.2968 28.0736L51.2477 28.1173V28.127C51.0658 28.3115 50.8742 28.5008 50.6875 28.6805C48.1224 31.1277 45.1838 32.7008 42.884 32.8902C43.287 31.9094 43.7685 30.9092 44.2796 29.9818H44.2747Z" fill="#939598"/>
<path d="M22.9333 19.8577C21.3657 22.4845 19.4935 24.7132 17.636 26.1456C15.8325 27.5391 14.2256 28.0149 13.233 27.4517C12.2404 26.8836 11.8522 25.2764 12.1716 23.0332C12.5107 20.6588 13.577 17.8475 15.174 15.1138C17.9455 10.37 21.7097 7.03914 24.0537 7.03914C24.4124 7.03914 24.7367 7.11683 25.0168 7.27706C25.8374 7.74319 26.2158 8.8988 26.1716 10.4623C26.2158 10.4526 26.26 10.4429 26.3043 10.4331C27.1396 10.2729 27.5672 9.90389 28.3681 9.77279C28.1519 7.44701 27.233 5.7233 25.6949 4.77162C23.7883 3.59173 21.1888 3.7811 18.3731 5.30573C15.6212 6.80122 12.9726 9.40377 10.9185 12.6424C8.86447 15.881 7.64579 19.3721 7.48854 22.4699C7.32638 25.6357 8.28953 28.0295 10.1962 29.2142C12.6433 30.7292 16.2109 29.9571 19.7244 27.2235C20.6384 24.7617 21.7048 22.3049 22.9234 19.8625L22.9333 19.8577Z" fill="#939598"/>
<path d="M10.1076 35.386C11.527 35.386 12.6776 34.249 12.6776 32.8466C12.6776 31.4441 11.527 30.3071 10.1076 30.3071C8.68824 30.3071 7.5376 31.4441 7.5376 32.8466C7.5376 34.249 8.68824 35.386 10.1076 35.386Z" fill="black"/>
</svg>
