<svg width="86" height="86" viewBox="0 0 86 86" fill="none" xmlns="http://www.w3.org/2000/svg">
<circle cx="43" cy="43" r="43" fill="white"/>
<path opacity="0.4" d="M42.9221 17.6665C56.9132 17.6665 68.2559 29.0084 68.2561 42.9995C68.2561 56.9907 56.9133 68.3335 42.9221 68.3335C28.9311 68.3333 17.5891 56.9906 17.5891 42.9995C17.5893 29.0086 28.9312 17.6667 42.9221 17.6665Z" fill="black" stroke="black"/>
<path d="M37.4652 34.5459C39.1695 33.5517 41.2248 33.5517 42.9291 34.5459L42.931 34.5469L50.4232 38.8613C52.1534 39.8568 53.1648 41.6252 53.1176 43.6084V43.6201C53.1176 45.6101 52.1031 47.3572 50.3969 48.3535L42.9056 52.668L42.9027 52.6689C42.0515 53.1654 41.1314 53.4023 40.184 53.4023C39.2613 53.4023 38.3154 53.1649 37.4652 52.6689C35.7589 51.6735 34.7426 49.9007 34.7426 47.9346V39.2803C34.7426 37.2895 35.7579 35.542 37.4652 34.5459Z" fill="black" stroke="black"/>
</svg>
